<svg class="icon-img" viewBox="17 7 120 120" xmlns="http://www.w3.org/2000/svg" role="img" aria-label="PolyMC">
    <defs>
        <linearGradient id="a" x1="4.498" x2="12.435" y1="3.801" y2="9.568" gradientUnits="userSpaceOnUse">
            <stop stop-color="#88b858" offset="0"></stop>
            <stop stop-color="#72b147" offset=".5"></stop>
            <stop stop-color="#5a9a30" offset="1"></stop>
        </linearGradient>
    </defs>
    <path d="M42.375 118.668s0-24.797 34.094-24.797c34.103 0 34.094 24.797 34.094 24.797z" fill="#765338"></path>
    <path d="M76.47 93.872 42.376 118.67 21.304 53.751z" fill="#b7835a"></path>
    <path d="m76.47 93.872 55.165-40.121-21.072 64.918z" fill="#5b422d"></path>
    <path d="m79 95.709-2.53 1.84-2.532-1.84c0-1.84 2.531-1.84 2.531-1.84s2.531 0 2.531 1.84z" fill="#72b147"></path>
    <path d="M76.47 93.872s0-40.121 55.165-40.121l-1.564 4.819-6.384 8.324-6.384.962-6.383 8.324-6.384.961-6.384
                  8.325-6.384.961-6.384 8.324-6.383.962z" fill="#5a9a30"></path>
    <path d="m73.938
                  95.709-6.383-.961-6.384-8.325-6.384-.961-6.384-8.324-6.384-.962-6.383-8.324-6.384-.962-6.384-8.324-1.564-4.819c55.165 0
                  55.165 40.121 55.165 40.121z" fill="#88b858"></path>
    <path d="m.53 6.685 7.937 5.766 7.937-5.766L8.467.918z" fill="url(#a)"
        transform="matrix(6.95 0 0 6.9572 17.626 7.241)"></path>
    <path d="m22.868 58.567-1.564-4.82L76.469 93.87l55.166-40.122-1.564 4.82L76.47 97.55z" fill="none"></path>
</svg>